<svg xmlns="http://www.w3.org/2000/svg" xmlns:xlink="http://www.w3.org/1999/xlink" width="500" zoomAndPan="magnify" viewBox="0 0 375 374.999991" height="500" preserveAspectRatio="xMidYMid meet" version="1.0"><defs><clipPath id="2696c6f481"><path d="M 12 47.847656 L 363 47.847656 L 363 326.847656 L 12 326.847656 Z M 12 47.847656 " clip-rule="nonzero"/></clipPath></defs><g clip-path="url(#2696c6f481)"><path fill="#fefefe" d="M 327.152344 47.847656 L 47.847656 47.847656 C 28.558594 47.847656 13.109375 63.46875 13.109375 82.757812 L 12.933594 292.238281 C 12.933594 311.527344 28.558594 327.152344 47.847656 327.152344 L 327.152344 327.152344 C 346.441406 327.152344 362.0625 311.527344 362.0625 292.238281 L 362.0625 82.757812 C 362.0625 63.46875 346.441406 47.847656 327.152344 47.847656 Z M 327.152344 117.671875 L 187.5 204.953125 L 47.847656 117.671875 L 47.847656 82.757812 L 187.5 170.042969 L 327.152344 82.757812 Z M 327.152344 117.671875 " fill-opacity="1" fill-rule="nonzero"/></g></svg>