<svg xmlns="http://www.w3.org/2000/svg" xmlns:xlink="http://www.w3.org/1999/xlink" width="500" zoomAndPan="magnify" viewBox="0 0 375 374.999991" height="500" preserveAspectRatio="xMidYMid meet" version="1.0"><defs><clipPath id="3a0c2b2a3c"><path d="M 1.867188 2.542969 L 373.117188 2.542969 L 373.117188 372.292969 L 1.867188 372.292969 Z M 1.867188 2.542969 " clip-rule="nonzero"/></clipPath></defs><g clip-path="url(#3a0c2b2a3c)"><path fill="#ffffff" d="M 373.15625 188.117188 C 373.15625 85.621094 290.046875 2.542969 187.527344 2.542969 C 85.007812 2.542969 1.882812 85.621094 1.882812 188.117188 C 1.882812 275.140625 61.8125 348.175781 142.671875 368.230469 L 142.671875 244.828125 L 104.382812 244.828125 L 104.382812 188.117188 L 142.671875 188.117188 L 142.671875 163.683594 C 142.671875 100.527344 171.265625 71.246094 233.296875 71.246094 C 245.058594 71.246094 265.355469 73.546875 273.652344 75.859375 L 273.652344 127.257812 C 269.269531 126.792969 261.65625 126.558594 252.207031 126.558594 C 221.765625 126.558594 210.003906 138.085938 210.003906 168.046875 L 210.003906 188.101562 L 270.636719 188.101562 L 260.222656 244.8125 L 210.003906 244.8125 L 210.003906 372.308594 C 301.925781 361.21875 373.15625 282.96875 373.15625 188.101562 Z M 373.15625 188.117188 " fill-opacity="1" fill-rule="nonzero"/></g></svg>