<svg xmlns="http://www.w3.org/2000/svg" xmlns:xlink="http://www.w3.org/1999/xlink" width="500" zoomAndPan="magnify" viewBox="0 0 375 374.999991" height="500" preserveAspectRatio="xMidYMid meet" version="1.0"><defs><clipPath id="f64e42c32f"><path d="M 8.359375 78.0625 L 366.859375 78.0625 L 366.859375 297 L 8.359375 297 Z M 8.359375 78.0625 " clip-rule="nonzero"/></clipPath></defs><g clip-path="url(#f64e42c32f)"><path fill="#fefefe" d="M 365.597656 202.558594 L 330.957031 141.828125 C 329.503906 139.285156 326.800781 137.714844 323.875 137.714844 L 272.1875 137.714844 L 272.1875 104.710938 C 272.1875 90.183594 260.410156 78.40625 245.882812 78.40625 L 84.503906 78.40625 C 71.433594 78.40625 60.230469 88.171875 58.445312 101.121094 L 55.207031 124.605469 L 8.359375 124.605469 L 8.359375 140.90625 L 52.960938 140.90625 L 49.445312 166.429688 L 22.945312 166.429688 L 22.945312 182.730469 L 56.15625 182.730469 C 59.738281 182.914062 63.117188 180.679688 64.289062 177.15625 C 64.472656 176.597656 64.597656 176.027344 64.660156 175.453125 L 67.683594 153.503906 C 68.679688 146.285156 74.847656 140.90625 82.136719 140.90625 L 101.890625 140.90625 L 101.890625 124.605469 L 71.667969 124.605469 L 74.597656 103.34375 C 75.277344 98.394531 79.507812 94.710938 84.503906 94.710938 L 245.886719 94.710938 C 251.410156 94.710938 255.886719 99.1875 255.886719 104.710938 L 255.886719 193.699219 C 255.886719 201.757812 249.351562 208.292969 241.292969 208.292969 L 169.472656 208.292969 L 169.472656 224.59375 L 241.292969 224.59375 C 249.351562 224.59375 255.886719 231.125 255.886719 239.183594 L 255.886719 254.488281 L 154.785156 254.488281 C 151.128906 239.707031 137.753906 228.714844 121.855469 228.714844 C 105.960938 228.714844 92.589844 239.707031 88.929688 254.488281 L 65.515625 254.488281 C 62.796875 254.488281 60.117188 253.511719 58.195312 251.589844 C 55.917969 249.308594 54.902344 246.265625 55.332031 243.125 L 57.886719 224.59375 L 87.496094 224.59375 L 87.496094 208.292969 L 8.359375 208.292969 L 8.359375 224.59375 L 41.429688 224.59375 L 39.179688 240.898438 C 37.75 251.285156 42.609375 261.816406 52.226562 267.371094 C 56.261719 269.699219 60.894531 270.792969 65.554688 270.792969 L 88.929688 270.792969 C 92.589844 285.570312 105.960938 296.5625 121.855469 296.5625 C 137.75 296.5625 151.125 285.570312 154.785156 270.792969 L 278.351562 270.792969 C 282.011719 285.570312 295.382812 296.5625 311.277344 296.5625 C 327.171875 296.5625 340.542969 285.570312 344.203125 270.792969 L 358.519531 270.792969 C 363.019531 270.792969 366.667969 267.144531 366.667969 262.640625 L 366.667969 206.597656 C 366.667969 205.179688 366.300781 203.789062 365.597656 202.558594 Z M 123.671875 280.167969 C 112.535156 281.289062 103.207031 271.960938 104.328125 260.824219 C 105.15625 252.585938 111.820312 245.925781 120.058594 245.105469 C 131.183594 244 140.496094 253.308594 139.390625 264.4375 C 138.570312 272.675781 131.910156 279.339844 123.671875 280.167969 Z M 313.082031 280.167969 C 301.949219 281.28125 292.632812 271.960938 293.746094 260.832031 C 294.570312 252.59375 301.234375 245.929688 309.472656 245.109375 C 320.601562 243.996094 329.917969 253.3125 328.808594 264.441406 C 327.984375 272.683594 321.320312 279.347656 313.082031 280.167969 Z M 344.203125 254.488281 C 340.546875 239.707031 327.171875 228.714844 311.277344 228.714844 C 295.382812 228.714844 282.007812 239.707031 278.347656 254.488281 L 272.1875 254.488281 L 272.1875 154.019531 L 319.140625 154.019531 L 329.292969 171.816406 L 314.792969 171.816406 C 310.496094 171.816406 307.007812 175.304688 307.007812 179.601562 L 307.007812 203.605469 C 307.007812 207.90625 310.496094 211.390625 314.792969 211.390625 L 350.367188 211.390625 L 350.367188 254.488281 Z M 344.203125 254.488281 " fill-opacity="1" fill-rule="nonzero"/></g></svg>