<svg xmlns="http://www.w3.org/2000/svg" xmlns:xlink="http://www.w3.org/1999/xlink" width="500" zoomAndPan="magnify" viewBox="0 0 375 374.999991" height="500" preserveAspectRatio="xMidYMid meet" version="1.0"><defs><clipPath id="d8107d5a51"><path d="M 2.429688 2.429688 L 372.929688 2.429688 L 372.929688 372.929688 L 2.429688 372.929688 Z M 2.429688 2.429688 " clip-rule="nonzero"/></clipPath></defs><g clip-path="url(#d8107d5a51)"><path fill="#fefefe" d="M 110.804688 3.703125 C 91.121094 4.628906 77.679688 7.78125 65.925781 12.386719 C 53.757812 17.128906 43.453125 23.472656 33.203125 33.777344 C 22.933594 44.082031 16.621094 54.402344 11.933594 66.589844 C 7.382812 78.375 4.296875 91.816406 3.425781 111.519531 C 2.550781 131.238281 2.359375 137.53125 2.449219 187.777344 C 2.535156 238.007812 2.761719 244.316406 3.703125 264.054688 C 4.644531 283.738281 7.78125 297.164062 12.386719 308.929688 C 17.128906 321.101562 23.472656 331.386719 33.777344 341.65625 C 44.082031 351.925781 54.402344 358.21875 66.589844 362.925781 C 78.359375 367.476562 91.816406 370.578125 111.5 371.433594 C 131.238281 372.304688 137.53125 372.496094 187.761719 372.394531 C 238.007812 372.304688 244.300781 372.078125 264.035156 371.136719 C 283.71875 370.195312 297.144531 367.039062 308.914062 362.453125 C 321.082031 357.695312 331.386719 351.367188 341.636719 341.0625 C 351.890625 330.757812 358.199219 320.4375 362.90625 308.25 C 367.457031 296.480469 370.5625 283.023438 371.417969 263.355469 C 372.269531 243.621094 372.480469 237.308594 372.394531 187.082031 C 372.304688 136.851562 372.0625 130.558594 371.136719 110.820312 C 370.195312 91.121094 367.058594 77.695312 362.453125 65.925781 C 357.695312 53.757812 351.367188 43.472656 341.0625 33.203125 C 330.757812 22.949219 320.4375 16.621094 308.25 11.933594 C 296.480469 7.382812 283.023438 4.277344 263.339844 3.425781 C 243.601562 2.550781 237.292969 2.359375 187.0625 2.449219 C 136.832031 2.535156 130.539062 2.761719 110.804688 3.703125 M 112.964844 338.117188 C 94.9375 337.332031 85.140625 334.332031 78.601562 331.820312 C 69.953125 328.476562 63.800781 324.464844 57.296875 318.03125 C 50.8125 311.5625 46.800781 305.410156 43.417969 296.796875 C 40.890625 290.277344 37.839844 280.496094 36.984375 262.449219 C 36.0625 242.957031 35.851562 237.101562 35.765625 187.707031 C 35.679688 138.332031 35.851562 132.476562 36.707031 112.964844 C 37.472656 94.9375 40.488281 85.140625 43 78.621094 C 46.347656 69.972656 50.339844 63.816406 56.792969 57.3125 C 63.257812 50.828125 69.414062 46.820312 78.042969 43.4375 C 84.566406 40.890625 94.34375 37.855469 112.371094 37.003906 C 131.882812 36.078125 137.722656 35.886719 187.113281 35.78125 C 236.507812 35.679688 242.367188 35.851562 261.875 36.722656 C 279.902344 37.507812 289.699219 40.488281 296.222656 43.019531 C 304.867188 46.367188 311.039062 50.339844 317.527344 56.808594 C 324.011719 63.277344 328.039062 69.414062 331.402344 78.0625 C 333.949219 84.566406 336.984375 94.363281 337.835938 112.371094 C 338.761719 131.882812 338.96875 137.738281 339.058594 187.113281 C 339.144531 236.507812 338.96875 242.367188 338.117188 261.855469 C 337.332031 279.882812 334.332031 289.699219 331.824219 296.222656 C 328.476562 304.851562 324.480469 311.023438 318.015625 317.507812 C 311.546875 323.976562 305.410156 328.003906 296.761719 331.386719 C 290.257812 333.933594 280.460938 336.964844 262.449219 337.820312 C 242.941406 338.742188 237.101562 338.953125 187.691406 339.039062 C 138.316406 339.128906 132.457031 338.953125 112.949219 338.097656 M 263.773438 88.539062 C 263.792969 100.796875 273.765625 110.714844 286.003906 110.683594 C 298.261719 110.664062 308.179688 100.710938 308.164062 88.453125 C 308.144531 76.195312 298.171875 66.277344 285.917969 66.292969 C 273.660156 66.3125 263.738281 76.285156 263.757812 88.523438 M 92.425781 187.601562 C 92.53125 240.0625 135.140625 282.5 187.585938 282.394531 C 240.046875 282.289062 282.5 239.699219 282.394531 187.238281 C 282.289062 134.792969 239.679688 92.339844 187.21875 92.425781 C 134.777344 92.53125 92.324219 135.140625 92.425781 187.601562 M 125.746094 187.535156 C 125.691406 153.484375 153.238281 125.816406 187.289062 125.761719 C 221.339844 125.691406 249.007812 153.238281 249.078125 187.308594 C 249.148438 221.355469 221.582031 249.023438 187.535156 249.078125 C 153.484375 249.148438 125.816406 221.582031 125.761719 187.535156 " fill-opacity="1" fill-rule="nonzero"/></g></svg>