<svg xmlns="http://www.w3.org/2000/svg" xmlns:xlink="http://www.w3.org/1999/xlink" width="500" zoomAndPan="magnify" viewBox="0 0 375 374.999991" height="500" preserveAspectRatio="xMidYMid meet" version="1.0"><defs><clipPath id="8134c41847"><path d="M 60.929688 6.683594 L 314.429688 6.683594 L 314.429688 368.183594 L 60.929688 368.183594 Z M 60.929688 6.683594 " clip-rule="nonzero"/></clipPath></defs><g clip-path="url(#8134c41847)"><path fill="#fefefe" d="M 187.496094 6.6875 C 117.613281 6.6875 60.929688 63.371094 60.929688 133.253906 C 60.929688 228.179688 187.496094 368.308594 187.496094 368.308594 C 187.496094 368.308594 314.066406 228.179688 314.066406 133.253906 C 314.066406 63.371094 257.382812 6.6875 187.496094 6.6875 Z M 187.496094 178.457031 C 162.546875 178.457031 142.292969 158.207031 142.292969 133.253906 C 142.292969 108.304688 162.546875 88.050781 187.496094 88.050781 C 212.449219 88.050781 232.699219 108.304688 232.699219 133.253906 C 232.699219 158.207031 212.449219 178.457031 187.496094 178.457031 Z M 187.496094 178.457031 " fill-opacity="1" fill-rule="nonzero"/></g></svg>