<svg xmlns="http://www.w3.org/2000/svg" xmlns:xlink="http://www.w3.org/1999/xlink" width="500" zoomAndPan="magnify" viewBox="0 0 375 374.999991" height="500" preserveAspectRatio="xMidYMid meet" version="1.0"><defs><clipPath id="2679118ac2"><path d="M 74.78125 109 L 264 109 L 264 299.683594 L 74.78125 299.683594 Z M 74.78125 109 " clip-rule="nonzero"/></clipPath><clipPath id="be393c35da"><path d="M 226 75.433594 L 299 75.433594 L 299 148 L 226 148 Z M 226 75.433594 " clip-rule="nonzero"/></clipPath><clipPath id="5ac80c1f40"><path d="M 2.90625 3.554688 L 370.789062 3.554688 L 370.789062 371.441406 L 2.90625 371.441406 Z M 2.90625 3.554688 " clip-rule="nonzero"/></clipPath><clipPath id="c6092d83b3"><path d="M 186.847656 3.554688 C 85.257812 3.554688 2.90625 85.910156 2.90625 187.496094 C 2.90625 289.085938 85.257812 371.441406 186.847656 371.441406 C 288.4375 371.441406 370.792969 289.085938 370.792969 187.496094 C 370.792969 85.910156 288.4375 3.554688 186.847656 3.554688 Z M 186.847656 3.554688 " clip-rule="nonzero"/></clipPath></defs><g clip-path="url(#2679118ac2)"><path fill="#fefefe" d="M 89.230469 237.089844 C 84.414062 257.914062 79.597656 278.738281 74.78125 299.566406 C 95.605469 294.488281 116.433594 289.414062 137.257812 284.335938 C 179.496094 242.164062 221.730469 199.992188 263.96875 157.820312 C 254.988281 136.355469 239.152344 120.203125 216.914062 109.011719 C 174.351562 151.703125 131.792969 194.398438 89.230469 237.089844 Z M 101.140625 285.3125 C 97.167969 281.277344 93.199219 277.242188 89.230469 273.207031 C 91.703125 261.820312 94.175781 250.429688 96.648438 239.042969 C 111.164062 233.769531 110.808594 243.785156 106.214844 252.316406 C 118.558594 242.425781 131.597656 251.339844 122.613281 268.523438 C 134.644531 261.839844 137.871094 264.867188 136.28125 277.503906 C 124.566406 280.105469 112.851562 282.710938 101.140625 285.3125 Z M 132.261719 253.382812 C 134.921875 247.882812 134.976562 238.875 125.625 241.472656 C 160.574219 206.332031 195.519531 171.1875 230.46875 136.042969 C 234.308594 138.453125 238.148438 140.859375 241.988281 143.269531 C 205.410156 179.972656 168.835938 216.675781 132.261719 253.382812 Z M 140.664062 255.242188 C 175.613281 220.101562 210.5625 184.957031 245.507812 149.816406 C 249.347656 152.222656 253.1875 154.628906 257.027344 157.039062 C 220.453125 193.742188 183.878906 230.449219 147.304688 267.152344 C 149.964844 261.652344 150.015625 252.644531 140.664062 255.242188 Z M 226.480469 130.097656 C 189.90625 166.804688 153.332031 203.507812 116.757812 240.210938 C 119.417969 234.710938 119.46875 225.703125 110.121094 228.304688 C 145.066406 193.160156 180.015625 158.015625 214.960938 122.875 C 218.800781 125.28125 222.640625 127.691406 226.480469 130.097656 Z M 226.480469 130.097656 " fill-opacity="1" fill-rule="evenodd"/></g><g clip-path="url(#be393c35da)"><path fill="#fefefe" d="M 226.675781 100.226562 C 248.761719 110.804688 263.5625 127.480469 273.925781 147.863281 C 282.253906 139.730469 290.585938 131.59375 298.914062 123.460938 C 292.539062 97.679688 276.269531 82.003906 251.082031 75.433594 C 242.945312 83.695312 234.8125 91.960938 226.675781 100.226562 Z M 226.675781 100.226562 " fill-opacity="1" fill-rule="evenodd"/></g><g clip-path="url(#5ac80c1f40)"><g clip-path="url(#c6092d83b3)"><path stroke-linecap="butt" transform="matrix(0.75, 0, 0, 0.75, 2.904306, 3.554363)" fill="none" stroke-linejoin="miter" d="M 245.257832 0.000432029 C 109.804689 0.000432029 0.00259192 109.807738 0.00259192 245.255672 C 0.00259192 380.708815 109.804689 490.516121 245.257832 490.516121 C 380.710975 490.516121 490.513072 380.708815 490.513072 245.255672 C 490.513072 109.807738 380.710975 0.000432029 245.257832 0.000432029 Z M 245.257832 0.000432029 " stroke="#ffffff" stroke-width="36" stroke-opacity="1" stroke-miterlimit="4"/></g></g></svg>