<svg xmlns="http://www.w3.org/2000/svg" xmlns:xlink="http://www.w3.org/1999/xlink" width="500" zoomAndPan="magnify" viewBox="0 0 375 374.999991" height="500" preserveAspectRatio="xMidYMid meet" version="1.0"><defs><clipPath id="42496e2b83"><path d="M 6.28125 6.28125 L 368.53125 6.28125 L 368.53125 368.53125 L 6.28125 368.53125 Z M 6.28125 6.28125 " clip-rule="nonzero"/></clipPath></defs><path fill="#fefefe" d="M 302.300781 103.109375 C 297.5625 98.363281 289.796875 98.363281 285.0625 103.109375 L 163.109375 225.058594 C 158.363281 229.800781 150.597656 229.800781 145.859375 225.058594 L 89.484375 168.683594 C 84.746094 163.945312 76.984375 163.945312 72.242188 168.683594 L 66.101562 174.824219 C 61.363281 179.5625 61.371094 187.316406 66.136719 192.03125 L 146.21875 271.464844 C 150.976562 276.195312 158.757812 276.175781 163.496094 271.429688 L 308.441406 126.480469 C 313.183594 121.742188 313.183594 113.980469 308.441406 109.242188 Z M 302.300781 103.109375 " fill-opacity="1" fill-rule="nonzero"/><g clip-path="url(#42496e2b83)"><path fill="#fefefe" d="M 187.28125 368.414062 C 87.398438 368.414062 6.136719 287.152344 6.136719 187.269531 C 6.136719 87.390625 87.398438 6.136719 187.28125 6.136719 C 287.15625 6.136719 368.414062 87.394531 368.414062 187.273438 C 368.414062 287.15625 287.15625 368.414062 187.28125 368.414062 Z M 187.28125 19.511719 C 94.765625 19.511719 19.511719 94.765625 19.511719 187.273438 C 19.511719 279.785156 94.765625 355.042969 187.28125 355.042969 C 279.785156 355.042969 355.039062 279.785156 355.039062 187.273438 C 355.039062 94.765625 279.785156 19.511719 187.28125 19.511719 Z M 187.28125 19.511719 " fill-opacity="1" fill-rule="nonzero"/></g></svg>