<svg xmlns="http://www.w3.org/2000/svg" xmlns:xlink="http://www.w3.org/1999/xlink" width="500" zoomAndPan="magnify" viewBox="0 0 375 374.999991" height="500" preserveAspectRatio="xMidYMid meet" version="1.0"><defs><clipPath id="8f36334f47"><path d="M 20 153 L 355 153 L 355 320.152344 L 20 320.152344 Z M 20 153 " clip-rule="nonzero"/></clipPath><clipPath id="0a7712f685"><path d="M 6.050781 54.652344 L 369 54.652344 L 369 226 L 6.050781 226 Z M 6.050781 54.652344 " clip-rule="nonzero"/></clipPath></defs><g clip-path="url(#8f36334f47)"><path fill="#fefefe" d="M 187.5 320.234375 L 20.632812 320.234375 C 20.632812 288.265625 29.597656 258.347656 45.257812 232.964844 C 51.953125 235.019531 59.082031 236.097656 66.535156 236.097656 C 107.359375 236.097656 140.515625 202.941406 140.515625 162.117188 L 140.515625 160.171875 C 155.421875 155.851562 171.191406 153.476562 187.5 153.476562 C 203.914062 153.476562 219.683594 155.851562 234.695312 160.28125 C 234.585938 162.007812 234.480469 163.628906 234.480469 165.355469 C 234.480469 206.183594 267.636719 239.339844 308.460938 239.339844 C 316.453125 239.339844 324.121094 238.042969 331.359375 235.773438 C 345.9375 260.617188 354.363281 289.453125 354.363281 320.339844 L 187.5 320.339844 Z M 187.5 189.226562 C 215.148438 189.226562 237.503906 211.582031 237.503906 239.230469 C 237.503906 266.878906 215.148438 289.234375 187.5 289.234375 C 159.847656 289.234375 137.492188 266.878906 137.492188 239.230469 C 137.492188 211.582031 159.847656 189.226562 187.5 189.226562 Z M 187.5 189.226562 " fill-opacity="1" fill-rule="evenodd"/></g><g clip-path="url(#0a7712f685)"><path fill="#fefefe" d="M 120.320312 134.46875 C 124.640625 142.785156 127.015625 152.179688 127.015625 162.222656 C 127.015625 195.597656 99.90625 222.707031 66.535156 222.707031 C 33.160156 222.707031 6.054688 195.597656 6.054688 162.222656 C 6.054688 151.53125 8.863281 141.597656 13.613281 132.847656 C 35.105469 87.703125 104.769531 54.652344 187.5 54.652344 C 280.488281 54.652344 357.0625 96.449219 367 150.234375 C 368.296875 155.097656 368.945312 160.171875 368.945312 165.355469 C 368.945312 198.730469 341.835938 225.839844 308.460938 225.839844 C 275.089844 225.839844 247.980469 198.730469 247.980469 165.355469 C 247.980469 154.449219 250.894531 144.296875 255.863281 135.546875 C 241.285156 122.261719 216.121094 113.515625 187.5 113.515625 C 159.632812 113.515625 135.007812 121.832031 120.320312 134.46875 Z M 120.320312 134.46875 " fill-opacity="1" fill-rule="evenodd"/></g></svg>