<svg xmlns="http://www.w3.org/2000/svg" xmlns:xlink="http://www.w3.org/1999/xlink" width="500" zoomAndPan="magnify" viewBox="0 0 375 374.999991" height="500" preserveAspectRatio="xMidYMid meet" version="1.0"><defs><clipPath id="74ac77c222"><path d="M 3.359375 2.351562 L 371.609375 2.351562 L 371.609375 372.851562 L 3.359375 372.851562 Z M 3.359375 2.351562 " clip-rule="nonzero"/></clipPath></defs><g clip-path="url(#74ac77c222)"><path fill="#fefefe" d="M 317.9375 56.304688 C 283.324219 21.652344 237.296875 2.535156 188.246094 2.535156 C 87.1875 2.535156 4.933594 84.769531 4.898438 185.867188 C 4.898438 218.175781 13.332031 249.734375 29.375 277.523438 L 3.359375 372.527344 L 100.5625 347.027344 C 127.34375 361.644531 157.496094 369.328125 188.175781 369.34375 L 188.246094 369.34375 C 289.289062 369.34375 371.5625 287.09375 371.578125 186.011719 C 371.578125 137.019531 352.554688 90.972656 317.921875 56.304688 Z M 188.246094 338.390625 L 188.191406 338.390625 C 160.859375 338.390625 134.023438 331.035156 110.621094 317.152344 L 105.0625 313.839844 L 47.378906 328.96875 L 62.765625 272.730469 L 59.140625 266.96875 C 43.882812 242.710938 35.835938 214.664062 35.851562 185.867188 C 35.890625 101.859375 104.257812 33.492188 188.300781 33.492188 C 229.007812 33.492188 267.261719 49.371094 296.039062 78.183594 C 324.816406 106.980469 340.644531 145.269531 340.625 185.996094 C 340.589844 270.023438 272.21875 338.390625 188.230469 338.390625 Z M 271.835938 224.269531 C 267.261719 221.980469 244.742188 210.894531 240.535156 209.375 C 236.328125 207.839844 233.289062 207.089844 230.234375 211.664062 C 227.179688 216.253906 218.398438 226.574219 215.726562 229.628906 C 213.054688 232.683594 210.382812 233.066406 205.792969 230.761719 C 201.21875 228.476562 186.453125 223.628906 168.945312 208.023438 C 155.335938 195.875 146.132812 180.871094 143.460938 176.28125 C 140.792969 171.6875 143.1875 169.21875 145.472656 166.933594 C 147.523438 164.882812 150.046875 161.570312 152.351562 158.902344 C 154.640625 156.230469 155.410156 154.308594 156.925781 151.253906 C 158.464844 148.199219 157.695312 145.527344 156.542969 143.222656 C 155.390625 140.933594 146.242188 118.378906 142.417969 109.210938 C 138.707031 100.285156 134.917969 101.492188 132.121094 101.34375 C 129.449219 101.21875 126.394531 101.179688 123.335938 101.179688 C 120.28125 101.179688 115.324219 102.316406 111.117188 106.90625 C 106.910156 111.5 95.089844 122.585938 95.089844 145.125 C 95.089844 167.664062 111.5 189.453125 113.804688 192.527344 C 116.09375 195.582031 146.113281 241.847656 192.070312 261.699219 C 202.992188 266.417969 211.535156 269.238281 218.195312 271.359375 C 229.171875 274.851562 239.160156 274.359375 247.046875 273.167969 C 255.847656 271.851562 274.140625 262.082031 277.964844 251.378906 C 281.789062 240.679688 281.789062 231.511719 280.636719 229.589844 C 279.484375 227.671875 276.429688 226.535156 271.855469 224.230469 Z M 271.835938 224.269531 " fill-opacity="1" fill-rule="evenodd"/></g></svg>